<svg id="Layer_1" data-name="Layer 1" xmlns="http://www.w3.org/2000/svg" viewBox="0 0 32 32"><defs><style>.cls-1{fill:#7063f8;}.cls-2{fill:#fff;}</style></defs><path class="cls-1" d="M1.22,17.06c.07-.32.12-.65.2-1a5.91,5.91,0,0,1,3.57-4L5.17,12A3.46,3.46,0,0,1,4.76,6.8a3.4,3.4,0,0,1,4.74,0A3.44,3.44,0,0,1,9.17,12l1.94,1.14a8,8,0,0,1,2.64-1.43A4.3,4.3,0,0,1,11.7,7.88a4.23,4.23,0,0,1,1.47-3.16,4.28,4.28,0,0,1,6.07.49,4.37,4.37,0,0,1-1,6.45,7.88,7.88,0,0,1,2.66,1.45l2-1.18a3.35,3.35,0,0,1-1.35-3,3.28,3.28,0,0,1,1.14-2.24,3.38,3.38,0,0,1,4.65.2A3.45,3.45,0,0,1,26.82,12a6.1,6.1,0,0,1,4,6.06H23.56a7.08,7.08,0,0,1,0,.91,6.47,6.47,0,0,1-.16,1.46,3,3,0,0,1-3,2.14c-3,0-6,0-9,0a3.08,3.08,0,0,1-3.14-3.25V18.05l-.18,0H1.37l-.15,0ZM16,21.61h.58c1.39,0,2.78,0,4.18,0a2.11,2.11,0,0,0,1.92-1.88,6.8,6.8,0,0,0-1.38-4.81,6.66,6.66,0,0,0-7.64-2.18,6.57,6.57,0,0,0-4.28,5.44,5.38,5.38,0,0,0,0,1.79,2.09,2.09,0,0,0,2.2,1.66Zm0-10.29A3.35,3.35,0,1,0,12.61,8,3.34,3.34,0,0,0,15.94,11.32Zm5.63,2.49a8.23,8.23,0,0,1,1.76,3.12c0,.07.2.14.31.14H29.8A5,5,0,0,0,26.65,13,4.87,4.87,0,0,0,21.57,13.81Zm-11.23,0a4.86,4.86,0,0,0-5.42-.68A5,5,0,0,0,2.17,17l.09.05H8.4c.07,0,.17-.1.2-.18.13-.29.21-.6.33-.89A7.86,7.86,0,0,1,10.34,13.8ZM27.27,9.2a2.44,2.44,0,1,0-2.44,2.45A2.46,2.46,0,0,0,27.27,9.2ZM9.55,9.08a2.43,2.43,0,1,0-4.85.23,2.43,2.43,0,1,0,4.85-.23Z"/><path class="cls-2" d="M16,21.61H11.54a2.09,2.09,0,0,1-2.2-1.66,5.38,5.38,0,0,1,0-1.79,6.57,6.57,0,0,1,4.28-5.44,6.66,6.66,0,0,1,7.64,2.18,6.8,6.8,0,0,1,1.38,4.81,2.11,2.11,0,0,1-1.92,1.88c-1.4,0-2.79,0-4.18,0Z"/><path class="cls-2" d="M15.94,11.32A3.35,3.35,0,1,1,19.28,8,3.34,3.34,0,0,1,15.94,11.32Z"/><path class="cls-2" d="M21.57,13.81A4.87,4.87,0,0,1,26.65,13a5,5,0,0,1,3.15,4.13H23.64c-.11,0-.29-.07-.31-.14A8.23,8.23,0,0,0,21.57,13.81Z"/><path class="cls-2" d="M10.34,13.8A7.86,7.86,0,0,0,8.93,16c-.12.29-.2.6-.33.89,0,.08-.13.18-.2.18H2.26L2.17,17a5,5,0,0,1,2.75-3.9A4.86,4.86,0,0,1,10.34,13.8Z"/><path class="cls-2" d="M27.27,9.2a2.44,2.44,0,1,1-2.44-2.45A2.48,2.48,0,0,1,27.27,9.2Z"/><path class="cls-2" d="M9.55,9.08A2.43,2.43,0,1,1,7.06,6.75,2.42,2.42,0,0,1,9.55,9.08Z"/><path class="cls-1" d="M5.26,23.85c0-.39.08-.79.13-1.18A17.32,17.32,0,0,1,7,16.9a5.92,5.92,0,0,1,1.67-2.08A3.17,3.17,0,0,1,11,14.16c.83.1,1.64.3,2.45.46s1.53.35,2.3.43a4.9,4.9,0,0,0,1.47-.14c1-.2,2-.46,2.94-.67a4,4,0,0,1,2.41.15,4.14,4.14,0,0,1,1.69,1.38A10.39,10.39,0,0,1,26,19.42a18.14,18.14,0,0,1,.77,5.38,5.45,5.45,0,0,1-.44,2.36,1.89,1.89,0,0,1-2.15,1.12,4.92,4.92,0,0,1-2.08-.94A15.09,15.09,0,0,1,20.35,26a5.5,5.5,0,0,0-3.54-1.52,7.85,7.85,0,0,0-3.37.37,4.36,4.36,0,0,0-1.55.95A15,15,0,0,1,9.54,27.6a4.52,4.52,0,0,1-1.63.68A2,2,0,0,1,5.63,27a5.17,5.17,0,0,1-.33-1.56c0-.11,0-.22,0-.33Zm1,.42a6.52,6.52,0,0,0,.25,2.26,1,1,0,0,0,1.29.72,5.38,5.38,0,0,0,1.26-.54A12.68,12.68,0,0,0,11.3,25a5.1,5.1,0,0,1,1.72-1,8.76,8.76,0,0,1,5.52-.15,5.28,5.28,0,0,1,2.05,1.15c.63.55,1.27,1.08,1.93,1.59a4.28,4.28,0,0,0,1.74.81.94.94,0,0,0,1.12-.56,3.93,3.93,0,0,0,.35-1.62A17.73,17.73,0,0,0,25,19.78a9.66,9.66,0,0,0-1.49-3.32,2.86,2.86,0,0,0-2.84-1.27,20.74,20.74,0,0,0-2.58.54,7.7,7.7,0,0,1-4.15,0,23.18,23.18,0,0,0-2.6-.57,2.78,2.78,0,0,0-2.44.74A5.94,5.94,0,0,0,7.58,18,17.49,17.49,0,0,0,6.26,24.27Z"/><path class="cls-2" d="M6.26,24.27A17.49,17.49,0,0,1,7.58,18a5.94,5.94,0,0,1,1.36-2.1,2.78,2.78,0,0,1,2.44-.74,23.18,23.18,0,0,1,2.6.57,7.7,7.7,0,0,0,4.15,0,20.74,20.74,0,0,1,2.58-.54,2.86,2.86,0,0,1,2.84,1.27A9.66,9.66,0,0,1,25,19.78a17.73,17.73,0,0,1,.69,5.37,3.93,3.93,0,0,1-.35,1.62.94.94,0,0,1-1.12.56,4.28,4.28,0,0,1-1.74-.81c-.66-.51-1.3-1-1.93-1.59a5.28,5.28,0,0,0-2.05-1.15,8.76,8.76,0,0,0-5.52.15,5.1,5.1,0,0,0-1.72,1,12.68,12.68,0,0,1-2.24,1.76,5.38,5.38,0,0,1-1.26.54,1,1,0,0,1-1.29-.72A6.52,6.52,0,0,1,6.26,24.27ZM14,19.84a1.58,1.58,0,0,0-1.24-1.57c-.13,0-.18-.07-.21-.21A1.53,1.53,0,0,0,11,16.82,1.55,1.55,0,0,0,9.5,18.09c0,.14-.09.16-.21.18a1.5,1.5,0,0,0-1,.74A1.57,1.57,0,0,0,9.3,21.34c.09,0,.18,0,.2.15A1.55,1.55,0,0,0,11,22.79a1.57,1.57,0,0,0,1.53-1.25.23.23,0,0,1,.21-.21A1.56,1.56,0,0,0,14,19.84ZM20.65,17a.94.94,0,0,0,0,1.88.94.94,0,0,0,0-1.88Zm-1.91,3.79a.94.94,0,1,0-.92-1A.94.94,0,0,0,18.74,20.74Zm2.88-.95a.94.94,0,1,0,.94-.93A.95.95,0,0,0,21.62,19.79Zm0,1.92a1,1,0,0,0-.94-.94.93.93,0,0,0-.92.95.93.93,0,1,0,1.86,0Z"/><path class="cls-1" d="M14,19.84a1.56,1.56,0,0,1-1.24,1.49.23.23,0,0,0-.21.21A1.57,1.57,0,0,1,11,22.79a1.55,1.55,0,0,1-1.51-1.3c0-.13-.11-.14-.2-.15A1.57,1.57,0,0,1,8.25,19a1.5,1.5,0,0,1,1-.74c.12,0,.19,0,.21-.18A1.55,1.55,0,0,1,11,16.82a1.53,1.53,0,0,1,1.53,1.24c0,.14.08.19.21.21A1.58,1.58,0,0,1,14,19.84Zm-1,0a.55.55,0,0,0-.53-.56h-.34a.53.53,0,0,1-.57-.58,2,2,0,0,0,0-.42.52.52,0,0,0-.58-.46.57.57,0,0,0-.52.56v.3a.54.54,0,0,1-.57.6,2.41,2.41,0,0,0-.38,0,.54.54,0,0,0-.49.56.55.55,0,0,0,.52.53c.12,0,.24,0,.36,0a.53.53,0,0,1,.56.55c0,.11,0,.22,0,.33a.55.55,0,0,0,.53.57.54.54,0,0,0,.59-.53,2,2,0,0,0,0-.35.51.51,0,0,1,.5-.54c.16,0,.31,0,.46,0A.52.52,0,0,0,13,19.8Z"/><path class="cls-1" d="M20.65,17a.94.94,0,0,1,0,1.88.94.94,0,0,1,0-1.88Z"/><path class="cls-1" d="M18.74,20.74a.94.94,0,1,1,1-.92A.95.95,0,0,1,18.74,20.74Z"/><path class="cls-1" d="M21.62,19.79a1,1,0,0,1,.94-.93.94.94,0,1,1-.94.93Z"/><path class="cls-1" d="M21.59,21.71a.93.93,0,1,1-1.86,0,.93.93,0,0,1,.92-.95A1,1,0,0,1,21.59,21.71Z"/><path class="cls-2" d="M13,19.8a.52.52,0,0,1-.48.55c-.15,0-.3,0-.46,0a.51.51,0,0,0-.5.54,2,2,0,0,1,0,.35.54.54,0,0,1-.59.53.55.55,0,0,1-.53-.57c0-.11,0-.22,0-.33a.53.53,0,0,0-.56-.55c-.12,0-.24,0-.36,0A.55.55,0,0,1,9,19.81a.54.54,0,0,1,.49-.56,2.41,2.41,0,0,1,.38,0,.54.54,0,0,0,.57-.6v-.3a.57.57,0,0,1,.52-.56.52.52,0,0,1,.58.46,2,2,0,0,1,0,.42.53.53,0,0,0,.57.58h.34A.55.55,0,0,1,13,19.8Z"/></svg>