<svg id="Layer_1" data-name="Layer 1" xmlns="http://www.w3.org/2000/svg" viewBox="0 0 79.51 22.59"><defs><style>.cls-1,.cls-3{fill:#7063f8;}.cls-2{fill:#fff;}.cls-3{font-size:12px;font-family:Roboto-Regular, Roboto;}</style></defs><path class="cls-1" d="M1.66,13.47c.06-.29.11-.59.19-.88A5.4,5.4,0,0,1,5.13,8.9l.18-.08A3.12,3.12,0,1,1,9.3,4,3.15,3.15,0,0,1,9,8.79l1.79,1.05a7.07,7.07,0,0,1,2.44-1.31,4,4,0,0,1-1.89-3.47,3.83,3.83,0,0,1,1.36-2.9,3.94,3.94,0,1,1,4.62,6.36,7.3,7.3,0,0,1,2.46,1.33L21.6,8.77A3.05,3.05,0,0,1,20.36,6a3,3,0,0,1,1.05-2.06,3.12,3.12,0,1,1,3.87,4.89,5.59,5.59,0,0,1,3.65,5.55H22.27a6.83,6.83,0,0,1-.11,2.17,2.78,2.78,0,0,1-2.74,2c-2.77,0-5.53,0-8.3,0a2.84,2.84,0,0,1-2.9-3V14.38l-.17,0H1.79l-.13,0Zm13.59,4.17h.53c1.29,0,2.57,0,3.86,0a1.93,1.93,0,0,0,1.77-1.73,6.19,6.19,0,0,0-8.32-6.41,6,6,0,0,0-3.95,5,5,5,0,0,0,0,1.64,2,2,0,0,0,2,1.53Zm0-9.43a3.07,3.07,0,1,0-3.07-3.06A3.07,3.07,0,0,0,15.24,8.21Zm5.2,2.28a7.57,7.57,0,0,1,1.62,2.86c0,.07.18.13.28.13H28a4.62,4.62,0,0,0-7.59-3Zm-10.37,0a4.5,4.5,0,0,0-5-.62,4.51,4.51,0,0,0-2.54,3.58l.08,0H8.29c.06,0,.15-.09.18-.16.11-.27.19-.55.31-.82A7.31,7.31,0,0,1,10.07,10.48ZM25.69,6.26a2.25,2.25,0,1,0-2.25,2.25A2.25,2.25,0,0,0,25.69,6.26ZM9.34,6.15a2.24,2.24,0,0,0-4.47.21A2.19,2.19,0,0,0,7.19,8.5,2.22,2.22,0,0,0,9.34,6.15Z" transform="translate(-1.66 -1.21)"/><path class="cls-2" d="M15.25,17.64H11.18a2,2,0,0,1-2-1.53,5,5,0,0,1,0-1.64,6,6,0,0,1,3.95-5,6.19,6.19,0,0,1,8.32,6.41,1.93,1.93,0,0,1-1.77,1.73c-1.29,0-2.57,0-3.86,0Z" transform="translate(-1.66 -1.21)"/><path class="cls-2" d="M15.24,8.21a3.07,3.07,0,1,1,3.09-3.07A3.08,3.08,0,0,1,15.24,8.21Z" transform="translate(-1.66 -1.21)"/><path class="cls-2" d="M20.44,10.49a4.62,4.62,0,0,1,7.59,3H22.34c-.1,0-.26-.06-.28-.13A7.57,7.57,0,0,0,20.44,10.49Z" transform="translate(-1.66 -1.21)"/><path class="cls-2" d="M10.07,10.48a7.31,7.31,0,0,0-1.29,2c-.12.27-.2.55-.31.82,0,.07-.12.16-.18.16H2.62l-.08,0A4.51,4.51,0,0,1,5.08,9.86,4.5,4.5,0,0,1,10.07,10.48Z" transform="translate(-1.66 -1.21)"/><path class="cls-2" d="M25.69,6.26A2.25,2.25,0,1,1,23.44,4,2.27,2.27,0,0,1,25.69,6.26Z" transform="translate(-1.66 -1.21)"/><path class="cls-2" d="M9.34,6.15A2.22,2.22,0,0,1,7.19,8.5,2.19,2.19,0,0,1,4.87,6.36a2.24,2.24,0,0,1,4.47-.21Z" transform="translate(-1.66 -1.21)"/><path class="cls-1" d="M5.39,19.69c0-.36.07-.71.11-1.07A16,16,0,0,1,7,13.33a5.29,5.29,0,0,1,1.54-1.91,2.89,2.89,0,0,1,2.17-.6c.75.09,1.5.27,2.25.41s1.41.33,2.13.4a4.43,4.43,0,0,0,1.35-.13c.91-.18,1.81-.42,2.72-.61a3.67,3.67,0,0,1,2.22.13,3.79,3.79,0,0,1,1.56,1.27,9.8,9.8,0,0,1,1.55,3.34,16.54,16.54,0,0,1,.71,4.94,5.08,5.08,0,0,1-.41,2.17,1.75,1.75,0,0,1-2,1,4.59,4.59,0,0,1-1.92-.87,13.45,13.45,0,0,1-1.57-1.25A5.11,5.11,0,0,0,16,20.24a7.46,7.46,0,0,0-3.11.35,3.87,3.87,0,0,0-1.42.87,14.13,14.13,0,0,1-2.17,1.68,4.35,4.35,0,0,1-1.51.62,1.81,1.81,0,0,1-2.1-1.17,4.4,4.4,0,0,1-.3-1.43c0-.11,0-.21,0-.31Zm.92.39a5.94,5.94,0,0,0,.23,2.07.91.91,0,0,0,1.19.67,5.42,5.42,0,0,0,1.16-.5A12,12,0,0,0,11,20.71a4.59,4.59,0,0,1,1.59-.94,8.06,8.06,0,0,1,5.09-.13,4.75,4.75,0,0,1,1.9,1.05c.57.5,1.16,1,1.78,1.45a3.58,3.58,0,0,0,1.59.74.87.87,0,0,0,1-.51,3.76,3.76,0,0,0,.33-1.48A16,16,0,0,0,23.64,16a9,9,0,0,0-1.38-3.05,2.68,2.68,0,0,0-2.62-1.17,21.89,21.89,0,0,0-2.38.5,7.22,7.22,0,0,1-3.83,0A22.16,22.16,0,0,0,11,11.75a2.54,2.54,0,0,0-2.25.68,5.37,5.37,0,0,0-1.27,1.92A16,16,0,0,0,6.31,20.08Z" transform="translate(-1.66 -1.21)"/><path class="cls-2" d="M6.31,20.08a16,16,0,0,1,1.21-5.73,5.37,5.37,0,0,1,1.27-1.92A2.54,2.54,0,0,1,11,11.75a22.16,22.16,0,0,1,2.39.52,7.22,7.22,0,0,0,3.83,0,21.89,21.89,0,0,1,2.38-.5,2.68,2.68,0,0,1,2.62,1.17A9,9,0,0,1,23.64,16a16,16,0,0,1,.64,4.92A3.76,3.76,0,0,1,24,22.37a.87.87,0,0,1-1,.51,3.58,3.58,0,0,1-1.59-.74c-.62-.46-1.21-.95-1.78-1.45a4.75,4.75,0,0,0-1.9-1.05,8.06,8.06,0,0,0-5.09.13,4.59,4.59,0,0,0-1.59.94,12,12,0,0,1-2.07,1.61,5.42,5.42,0,0,1-1.16.5.91.91,0,0,1-1.19-.67A5.94,5.94,0,0,1,6.31,20.08ZM13.44,16a1.42,1.42,0,0,0-1.14-1.43.21.21,0,0,1-.19-.2,1.43,1.43,0,0,0-2.81,0c0,.12-.09.14-.19.16a1.39,1.39,0,0,0-1,.68,1.43,1.43,0,0,0,1,2.13c.09,0,.17,0,.19.15a1.41,1.41,0,0,0,1.39,1.18,1.45,1.45,0,0,0,1.42-1.14.19.19,0,0,1,.19-.19A1.42,1.42,0,0,0,13.44,16Zm6.15-2.65a.86.86,0,1,0,.86.86A.85.85,0,0,0,19.59,13.37Zm-1.77,3.47A.85.85,0,0,0,18.7,16,.86.86,0,1,0,17,16,.86.86,0,0,0,17.82,16.84ZM20.48,16a.87.87,0,0,0,1.73,0,.87.87,0,0,0-1.73,0Zm0,1.75a.86.86,0,1,0-1.71,0,.86.86,0,1,0,1.71,0Z" transform="translate(-1.66 -1.21)"/><path class="cls-1" d="M13.44,16a1.42,1.42,0,0,1-1.14,1.37.19.19,0,0,0-.19.19,1.45,1.45,0,0,1-1.42,1.14A1.41,1.41,0,0,1,9.3,17.54c0-.13-.1-.13-.19-.15a1.43,1.43,0,0,1-1-2.13,1.39,1.39,0,0,1,1-.68c.1,0,.17,0,.19-.16a1.43,1.43,0,0,1,2.81,0,.21.21,0,0,0,.19.2A1.42,1.42,0,0,1,13.44,16Zm-.89,0a.5.5,0,0,0-.48-.52h-.31a.49.49,0,0,1-.53-.53c0-.13,0-.26,0-.39a.47.47,0,0,0-.53-.41.5.5,0,0,0-.48.51v.27a.5.5,0,0,1-.53.55,2,2,0,0,0-.35,0,.48.48,0,0,0-.45.51.5.5,0,0,0,.48.49h.33a.49.49,0,0,1,.52.5v.31a.52.52,0,0,0,1,0c0-.11,0-.22,0-.33a.46.46,0,0,1,.46-.49c.14,0,.29,0,.43,0A.48.48,0,0,0,12.55,16Z" transform="translate(-1.66 -1.21)"/><path class="cls-1" d="M19.59,13.37a.86.86,0,1,1-.85.87A.85.85,0,0,1,19.59,13.37Z" transform="translate(-1.66 -1.21)"/><path class="cls-1" d="M17.82,16.84A.86.86,0,0,1,17,16a.86.86,0,1,1,1.72,0A.85.85,0,0,1,17.82,16.84Z" transform="translate(-1.66 -1.21)"/><path class="cls-1" d="M20.48,16a.87.87,0,0,1,1.73,0,.87.87,0,0,1-1.73,0Z" transform="translate(-1.66 -1.21)"/><path class="cls-1" d="M20.45,17.73a.86.86,0,1,1-.86-.86A.87.87,0,0,1,20.45,17.73Z" transform="translate(-1.66 -1.21)"/><path class="cls-2" d="M12.55,16a.48.48,0,0,1-.43.5c-.14,0-.29,0-.43,0a.46.46,0,0,0-.46.49c0,.11,0,.22,0,.33a.52.52,0,0,1-1,0V17a.49.49,0,0,0-.52-.5H9.34A.5.5,0,0,1,8.86,16a.48.48,0,0,1,.45-.51,2,2,0,0,1,.35,0,.5.5,0,0,0,.53-.55v-.27a.5.5,0,0,1,.48-.51.47.47,0,0,1,.53.41c0,.13,0,.26,0,.39a.49.49,0,0,0,.53.53h.31A.5.5,0,0,1,12.55,16Z" transform="translate(-1.66 -1.21)"/><text class="cls-3" transform="translate(31.42 15.73)">GameInn</text></svg>